# xmcd CD database file
#
# Track frame offsets:
#	150
#	1629
#	22398
#	38136
#	52724
#	62185
#	77907
#	93544
#	112161
#	129288
#	151406
#	160572
#	176195
#	184624
#	196507
#	208959
#	227925
#	245241
#	257862
#	277574
#	291507
#
# Disc length: 4139 seconds
#
# Revision: 0
# Processed by: cddbd v1.5.2PL0 Copyright (c) Steve Scherf et al.
# Submitted via: CDex 1.70beta2
#
DISCID=26102915
DTITLE=Torzo - Tenkrát v Nashville
DYEAR=2001
DGENRE=Country
TTITLE0=Nashville znělka
TTITLE1=Nashville and MS 01
TTITLE2=Sundej z hodin závaží
TTITLE3=Chtěl bych být medvídkem
TTITLE4=Bída z nouzí
TTITLE5=Paní má se má
TTITLE6=Prázdný nádraží
TTITLE7=Zas jak dřív
TTITLE8=Tam u nebeských bran
TTITLE9=Diego
TTITLE10=Amazonka
TTITLE11=Modrý voči
TTITLE12=Když náš táta hrál
TTITLE13=Kamosch
TTITLE14=Černej Boby
TTITLE15=Čekám na svůj náklaďák
TTITLE16=Fšeci só už v Mechicu
TTITLE17=Poslední kovboj
TTITLE18=Frankie Dlouhán
TTITLE19=Quantanamo
TTITLE20=Maschinka (Jede jede mašinka)
EXTD=YEAR: 2001
EXTT0=
EXTT1=
EXTT2=
EXTT3=
EXTT4=
EXTT5=
EXTT6=
EXTT7=
EXTT8=
EXTT9=
EXTT10=
EXTT11=
EXTT12=
EXTT13=
EXTT14=
EXTT15=
EXTT16=
EXTT17=
EXTT18=
EXTT19=
EXTT20=
PLAYORDER=
